<?xml version="1.0" encoding="UTF-8"?>
<svg id="Layer_1" data-name="Layer 1" xmlns="http://www.w3.org/2000/svg" viewBox="0 0 268.48 33.3">
  <path d="M267.77,29.52c-.67.71-1.69,1.43-3.05,1.43h-10.61v-15.13h7.98c.36,0,.7.16,1.03.47.08.08.15.15.22.23h.46v-3.39h-.49c-.06.06-.13.13-.2.19-.33.3-.67.45-1.03.45h-7.98V1.96h8.42c1.04,0,1.87.15,2.47.45.33.17.65.38.95.63h.68l-.03-1.18h0l-.05-1.86h-17.78v.49c.11.11.21.22.3.34.22.3.34.68.38,1.13,0,.08.02.16.02.24v28.89c0,.59-.13,1.05-.39,1.37-.09.11-.19.21-.3.31v.52h18.96l.76-3.78h-.71Z"/>
  <path d="M210.67.5c.1.1.19.21.27.33.24.36.37.82.37,1.37v28.89c0,.56-.12,1-.37,1.35-.08.11-.18.22-.27.32v.53h5.89v-.6c-.08-.08-.16-.16-.23-.26-.24-.34-.37-.79-.37-1.35V2.2c0-.55.12-1.01.37-1.37.07-.1.15-.2.23-.29V0h-5.89v.5Z"/>
  <path d="M206.56,1.86h0l-.05-1.86h-17.78v.49c.11.1.21.22.3.34.22.3.34.68.38,1.13,0,.08.01.16.01.24v28.89c0,.59-.11,1.05-.34,1.37-.09.14-.21.26-.35.38v.45h6.13v-.44c-.15-.12-.28-.25-.4-.4-.26-.33-.39-.78-.39-1.37l.08-15.28h7.91c.36,0,.7.15,1.03.46.08.08.15.15.22.23h.47v-3.39h-.49c-.06.06-.13.13-.2.19-.32.3-.67.45-1.03.45h-7.98V1.96h8.42c1.05,0,1.87.15,2.47.45.33.17.65.38.95.63h.67l-.03-1.18Z"/>
  <path d="M122.81,21.4c-.28-.78-.65-1.48-1.1-2.08-.46-.6-.98-1.12-1.57-1.54-.59-.42-1.17-.78-1.76-1.08-1.44-.69-3.05-1.14-4.85-1.37,1.21-.42,2.3-1,3.28-1.72.85-.62,1.62-1.41,2.3-2.37.69-.96,1.03-2.18,1.03-3.65,0-1.11-.21-2.07-.61-2.86-.41-.8-.94-1.48-1.59-2.03-.65-.56-1.39-1.01-2.2-1.37-.82-.36-1.65-.64-2.5-.83-.85-.2-1.66-.32-2.42-.39-.77-.06-1.43-.1-1.98-.1h-8.62v.44c.46.42.69,1,.69,1.77v28.89c0,.72-.23,1.29-.69,1.73v.48h9.9c2.61,0,4.77-.3,6.47-.91,1.7-.6,3.04-1.36,4.02-2.28.98-.91,1.66-1.91,2.06-2.99.39-1.08.59-2.09.59-3.03,0-1.01-.14-1.91-.42-2.69M105.54,2.16c.23,0,.5-.02.83-.05.26,0,.58,0,.97-.03.39-.02.86-.02,1.41-.02.81,0,1.62.11,2.41.32.79.21,1.51.55,2.14,1.02.63.47,1.15,1.07,1.56,1.81.41.73.61,1.63.61,2.71,0,1.53-.3,2.74-.9,3.63-.6.89-1.32,1.56-2.14,2-.83.44-1.7.71-2.61.83-.91.12-1.66.17-2.24.17h-.83c-.26,0-.47-.02-.63-.05-.23,0-.42-.02-.59-.05V2.16ZM116.91,27.89c-.78,1.03-1.71,1.81-2.79,2.33-1.08.52-2.19.84-3.35.96-1.16.12-2.13.17-2.91.17h-.96c-.28,0-.51-.02-.71-.05-.23-.03-.44-.06-.64-.1v-14.49c.46,0,.91-.02,1.37-.05.39,0,.81,0,1.27-.03.46-.02.88-.02,1.27-.02,1.01,0,2.03.1,3.06.29,1.03.2,1.96.55,2.79,1.05.83.51,1.5,1.22,2.01,2.13.51.91.76,2.09.76,3.53,0,1.83-.39,3.26-1.17,4.28"/>
  <path d="M54.2,0v.51c.39.42.59.99.59,1.7l.2,20.27c0,1.11-.14,2.18-.42,3.21-.28,1.03-.75,1.94-1.43,2.74-.67.8-1.56,1.44-2.68,1.91s-2.49.71-4.13.71c-1.73,0-3.13-.29-4.2-.86-1.06-.57-1.88-1.29-2.46-2.16-.57-.86-.96-1.8-1.15-2.79-.2-1-.3-1.92-.3-2.77V2.21c0-.56.18-1.01.53-1.37.15-.15.3-.28.46-.4V0h-6.47v.49c.12.11.23.22.35.34.33.36.49.82.49,1.37v20.17c0,2.06.38,3.79,1.15,5.19.77,1.4,1.75,2.53,2.96,3.38,1.21.85,2.54,1.45,3.99,1.81,1.45.36,2.85.54,4.19.54,1.53,0,2.98-.2,4.33-.59,1.35-.39,2.55-1.03,3.58-1.91,1.03-.88,1.85-2.01,2.47-3.4.62-1.39.93-3.09.93-5.12l.14-20.08c0-.56.12-1.01.37-1.37.08-.12.18-.23.27-.33V0h-3.78Z"/>
  <path d="M146.13,29.52c-.67.71-1.69,1.43-3.05,1.43h-10.61v-15.13h7.98c.36,0,.7.16,1.03.47.08.08.15.15.22.23h.46v-3.39h-.49c-.06.06-.13.13-.2.19-.33.3-.67.45-1.03.45h-7.98V1.96h8.42c1.04,0,1.87.15,2.47.45.33.17.65.38.95.63h.68l-.03-1.18h0l-.05-1.86h-17.78v.49c.11.11.21.22.3.34.22.3.34.68.38,1.13,0,.08.02.16.02.24v28.89c0,.59-.13,1.05-.39,1.37-.09.11-.19.21-.3.31v.52h18.96l.76-3.78h-.71Z"/>
  <path d="M173.97,32.81c-.24-.13-.46-.27-.63-.42-.18-.14-.35-.34-.52-.59s-.38-.58-.63-1.01l-8.97-14.15c3.41-1.05,5.56-2.85,6.57-4.97.48-1.02.78-2.16.78-3.5,0-.79-.16-1.65-.49-2.6s-.92-1.84-1.79-2.67c-.87-.83-2.07-1.52-3.62-2.08-1.55-.55-3.55-.83-6-.83h-8.53v.53c.09.09.17.19.25.3.26.36.39.82.39,1.37v28.89c0,.55-.13,1-.39,1.34-.08.1-.17.19-.25.28v.58h5.94v-.6c-.08-.09-.17-.17-.24-.26-.27-.34-.4-.79-.4-1.34v-13.47h.34c.87,0,1.69-.04,2.48-.1l6.09,9.7s2.04,3.28,2.5,4.03c.36.58.34,1.13.15,1.51v.53h7.29v-.33c-.12-.06-.23-.11-.32-.16M158.26,15.67h-1c-.34,0-.64-.02-.9-.05-.33,0-.64-.01-.93-.05V2.1c.33,0,.67-.01,1.03-.05.32-.04.7-.06,1.14-.08.44-.01.93-.02,1.49-.02,1.3,0,2.37.22,3.21.66.85.44,1.51.99,2,1.64.49.66.83,1.35,1.02,2.08.2.73.29,1.4.29,1.99,0,1.27-.21,2.38-.63,3.31-.42.93-.98,1.7-1.66,2.3-.69.61-1.47,1.05-2.36,1.32-.89.28-1.8.42-2.71.42"/>
  <path d="M27.54,33.3V2.2c0-.56.12-1.01.37-1.37.08-.12.17-.23.27-.33V0h-3.59v.55c.08.09.16.18.23.29.24.36.37.82.37,1.37v21.64L5.85,0H0v.52c.16.11.31.22.44.34.34.31.64.61.91.91.13.2.24.36.32.49.08.13.15.27.2.42.05.15.07.33.07.54v27.89c0,.56-.12,1-.37,1.35-.07.1-.15.17-.23.26v.6h3.59v-.48c-.46-.44-.69-1.01-.69-1.73V5.44c0,.07.33.52,1,1.37.67.85,1.55,1.96,2.65,3.33,1.09,1.37,2.33,2.91,3.72,4.63,1.39,1.71,2.82,3.47,4.28,5.26,3.22,3.93,6.86,8.36,10.89,13.27h.76Z"/>
  <path d="M95.44.51V0h-5.64l-10.63,25.12L68.4,0h-5.93v.46c.14.13.28.28.4.44.29.41.44.84.44,1.3v28.89c0,.56-.12,1-.34,1.35-.07.11-.16.21-.25.31v.54h3.59v-.54c-.1-.1-.21-.2-.3-.32-.26-.34-.39-.79-.39-1.35V6.56c0-.1,0-.22-.02-.37-.02-.15-.03-.29-.03-.42-.03-.13-.05-.3-.05-.49l.44,1.27,11.56,26.74h.59l11.8-27.52.34-1.13c-.03.1-.05.21-.05.34-.03.13-.05.36-.05.69v25.41c0,.56-.12,1-.34,1.35-.07.11-.16.21-.25.31v.54h5.89v-.54c-.09-.1-.18-.2-.25-.31-.23-.34-.34-.79-.34-1.35V2.21c0-.71.2-1.27.59-1.7"/>
  <path d="M242.7,0v.42c.18.16.3.33.35.51.1.36.03.83-.2,1.42,0,.03-.94,2.61-1.35,3.72-.41,1.11-.87,2.36-1.4,3.75-.52,1.39-1.05,2.8-1.57,4.23l-4.31,11.56c-1.63-4.21-3.09-7.98-4.36-11.31-.56-1.4-1.09-2.79-1.62-4.16-.52-1.37-.99-2.59-1.39-3.65-.41-1.06-.74-1.92-1-2.57-.26-.65-.39-.99-.39-1.03-.16-.62-.21-1.19-.15-1.72.04-.3.17-.55.4-.76V0h-7.55v.29c.45.23.8.47,1.01.74.31.39.6.83.86,1.32.1.23.37.87.81,1.91.44,1.05.98,2.34,1.62,3.89.64,1.55,1.34,3.28,2.11,5.19.77,1.91,1.54,3.84,2.33,5.8l5.66,14.15h.99c1.93-5.14,3.7-9.85,5.3-14.1.72-1.96,1.44-3.89,2.18-5.8.73-1.91,1.4-3.64,1.98-5.19.59-1.55,1.08-2.85,1.49-3.89.41-1.04.66-1.7.76-1.96.13-.33.24-.59.32-.78.08-.2.18-.38.29-.54.11-.16.25-.33.42-.49.02-.02.04-.03.05-.05V0h-3.63Z"/>
</svg>