<?xml version="1.0" encoding="UTF-8"?>
<svg id="Layer_1" data-name="Layer 1" xmlns="http://www.w3.org/2000/svg" viewBox="0 0 500 500">
  <path d="M0,500h440.5c-60.56-73.76-115.13-140.23-163.54-199.26-22.05-26.96-43.51-53.33-64.32-79.05-20.84-25.72-39.48-48.89-55.89-69.47-16.43-20.61-29.66-37.25-39.72-50.01-10.05-12.76-15.05-19.61-15.05-20.61v385.29c0,10.76,3.5,19.4,10.35,25.96v7.14s-53.83,0-53.83,0v-8.97c1.15-1.29,2.38-2.47,3.38-3.91,3.7-5.14,5.53-11.88,5.53-20.23V61.03s0-12.88,0-12.88c0-3.18-.35-5.85-1.09-8.09-.73-2.2-1.73-4.26-2.97-6.23-1.21-1.97-2.82-4.41-4.76-7.35-3.94-4.41-8.47-8.94-13.61-13.61-1.94-1.76-4.2-3.44-6.59-5.12V0H0v500Z"/>
  <path d="M38.39,0h87.84s290.43,358.1,290.43,358.1V33.1c0-8.35-1.82-15.2-5.5-20.61-1.06-1.53-2.21-2.94-3.41-4.29V0h53.86v7.53c-1.5,1.56-2.88,3.18-4.12,4.97-3.67,5.41-5.53,12.26-5.53,20.61v466.9s48.03,0,48.03,0V0H38.39Z"/>
</svg>